# xmcd
#
# Track frame offsets: 
#        150
#        19841
#        35083
#        54815
#        67671
#        90024
#        103165
#        126138
#        143259
#        168556
#        199623
#
# Disc length: 4440 seconds
#
# Revision: 8
# Processed by: cddbd v1.5.2PL0 Copyright (c) Steve Scherf et al.
# Submitted via: ExactAudioCopy v1.0b3
#
DISCID=8011560b
DTITLE=Bunbury - El Viaje A Ninguna Parte [CD1]
DYEAR=2004
DGENRE=Spanish Rock
TTITLE0=Que Tengas Suertecita
TTITLE1=Los Restos Del Naufragio
TTITLE2=El Rescate
TTITLE3=Que No Sepa Tu Mano Izquierda Lo Que Hace La Derecha
TTITLE4=Carmen Jones
TTITLE5=Lo Que Queda Por Vivir
TTITLE6=La Chica Triste Que Te Hacia Reir
TTITLE7=Anidando Liendres
TTITLE8=No Me Llames Cariño
TTITLE9=Adios, Compañeros, Adios
TTITLE10=Pista De Datos
EXTD=YEAR: 2004
EXTT0=
EXTT1=
EXTT2=
EXTT3=
EXTT4=
EXTT5=
EXTT6=
EXTT7=
EXTT8=
EXTT9=
EXTT10=
PLAYORDER=
